<?xml version="1.0" encoding="UTF-8"?>
<svg version="1.1" xmlns="http://www.w3.org/2000/svg" width="1024" height="1024">
<path d="M0 0 C337.92 0 675.84 0 1024 0 C1024 337.92 1024 675.84 1024 1024 C686.08 1024 348.16 1024 0 1024 C0 686.08 0 348.16 0 0 Z " fill="#FDFDFD" transform="translate(0,0)"/>
<path d="M0 0 C7.91945362 3.98432139 14.28597014 9.6126427 20.8359375 15.5 C49.73977136 41.46995835 83.47331373 61.88257517 119.31152344 76.69970703 C133.27626046 82.51024528 133.27626046 82.51024528 136.64453125 89.89453125 C138.42312803 99.11934293 135.74549574 105.75368589 131.39453125 113.73828125 C127.67074875 120.58596639 124.39183011 127.65302432 121.08203125 134.70703125 C120.75204132 135.4092984 120.42205139 136.11156555 120.08206177 136.83511353 C115.00685527 147.66634501 110.37320834 158.51798364 106.64453125 169.89453125 C106.41088867 170.58353516 106.17724609 171.27253906 105.93652344 171.98242188 C100.72119099 187.37594807 98.06569798 201.86536371 98.20703125 218.08203125 C98.2107373 218.84799622 98.21444336 219.61396118 98.21826172 220.40313721 C98.46066531 255.6866324 111.7870592 286.11978925 134.64453125 312.89453125 C135.29164063 313.67699219 135.93875 314.45945312 136.60546875 315.265625 C141.69510869 321.25893571 147.42158204 326.10897142 153.64453125 330.89453125 C154.46308594 331.52875 155.28164063 332.16296875 156.125 332.81640625 C161.88819657 337.14103747 167.90724452 340.96711683 174.01953125 344.76953125 C191.06781636 355.42700021 210.98855049 368.60397647 217.08203125 388.95703125 C219.02749285 402.57526247 216.78062552 414.63717319 208.64453125 425.89453125 C201.47904319 434.41565218 191.56689885 439.38219047 180.64453125 440.89453125 C120.50638647 443.98694851 65.28547541 417.06161473 12.65527344 390.89239502 C10.06132487 389.60510552 7.46303102 388.3267473 4.86448669 387.04876709 C1.93451166 385.606546 -0.99176035 384.15687597 -3.91796875 382.70703125 C-4.93963135 382.20284668 -5.96129395 381.69866211 -7.01391602 381.17919922 C-12.54702756 378.41519841 -17.86979122 375.44454026 -23.14624023 372.21850586 C-25.89444858 370.57152455 -28.71671886 369.15340882 -31.60546875 367.76953125 C-37.63938133 364.81178986 -43.52661597 361.63557497 -49.41015625 358.390625 C-60.91455955 352.08425248 -72.54180966 346.03860444 -84.23046875 340.08203125 C-85.24539398 339.56394897 -86.26031921 339.0458667 -87.30599976 338.51208496 C-104.81835241 329.58233163 -122.47682528 321.06171876 -140.35546875 312.89453125 C-147.97569128 309.3921556 -155.5920089 305.88132358 -163.20117188 302.35498047 C-165.35222959 301.35903409 -167.50463307 300.36599042 -169.65820312 299.37548828 C-211.44650841 280.10127433 -211.44650841 280.10127433 -218.69921875 261.90234375 C-222.37213594 250.66496617 -220.24132381 240.85924741 -215.17578125 230.4765625 C-207.0035201 215.65527231 -193.32070469 202.66864273 -180.53515625 191.79296875 C-177.63920343 189.27068726 -174.84912377 186.64083025 -172.04296875 184.01953125 C-168.16861851 180.41048676 -164.25396556 176.94059721 -160.10546875 173.64453125 C-149.01771002 164.72576474 -138.78156614 154.60758641 -128.93383789 144.34838867 C-127.77692394 143.16105703 -126.57065316 142.02215404 -125.35546875 140.89453125 C-124.69546875 140.89453125 -124.03546875 140.89453125 -123.35546875 140.89453125 C-123.12859375 140.33894531 -122.90171875 139.78335938 -122.66796875 139.2109375 C-120.97849691 136.22922082 -118.8204475 134.20743955 -116.35546875 131.83203125 C-113.67336587 129.2395917 -111.427577 127.00269363 -109.35546875 123.89453125 C-108.69546875 123.89453125 -108.03546875 123.89453125 -107.35546875 123.89453125 C-107.07872314 123.30172363 -106.80197754 122.70891602 -106.5168457 122.09814453 C-105.42272792 120.02214976 -104.28167618 118.423563 -102.7734375 116.63671875 C-102.26039063 116.02086914 -101.74734375 115.40501953 -101.21875 114.77050781 C-100.66574219 114.11018555 -100.11273438 113.44986328 -99.54296875 112.76953125 C-78.74279366 87.50056855 -62.19396778 59.30643368 -45.40625 31.30859375 C-44.78484131 30.27710205 -44.16343262 29.24561035 -43.52319336 28.18286133 C-42.37183291 26.27166257 -41.22510398 24.35766169 -40.08422852 22.44018555 C-30.71873345 6.91398015 -19.74442778 -6.50485805 0 0 Z " fill="#0179D0" transform="translate(595.35546875,197.10546875)"/>
<path d="M0 0 C7.21065054 2.30431702 14.54571034 4.12999357 21.89160156 5.94873047 C23.31073853 6.30668701 23.31073853 6.30668701 24.75854492 6.671875 C25.60457275 6.88094482 26.45060059 7.09001465 27.32226562 7.30541992 C29.52026367 8.00390625 29.52026367 8.00390625 32.52026367 10.00390625 C30.49721646 10.67825532 28.47394219 11.35192646 26.44995117 12.0234375 C24.36872093 12.71995589 22.29092214 13.42676486 20.21557617 14.140625 C12.80770024 16.66567518 5.37694401 18.93446592 -2.1730957 20.99438477 C-12.64968766 23.85531709 -23.06113062 26.939794 -33.47973633 30.00390625 C-35.16341309 30.49793945 -35.16341309 30.49793945 -36.88110352 31.00195312 C-47.96766482 34.25701001 -59.04790916 37.51065131 -70.04223633 41.06640625 C-78.65320764 43.84798968 -87.37619246 46.15311996 -96.1237793 48.46240234 C-103.23738971 50.3553622 -110.177862 52.4797633 -117.13208008 54.89453125 C-121.85689966 56.46028243 -126.65860134 57.66440784 -131.47583008 58.91015625 C-135.9627465 60.10397447 -140.37318233 61.51986108 -144.79223633 62.94140625 C-151.61179151 65.13065202 -158.45355005 67.15380604 -165.36230469 69.04101562 C-179.94599206 73.03283766 -194.43363412 77.37337514 -208.90991211 81.73632812 C-215.34034871 83.67094648 -221.78251851 85.56352037 -228.22973633 87.44140625 C-229.23665527 87.73474854 -230.24357422 88.02809082 -231.28100586 88.33032227 C-236.32766398 89.79914974 -241.37564142 91.26330921 -246.42504883 92.72265625 C-256.9951555 95.78372989 -267.53246475 98.92868249 -278.04223633 102.19140625 C-285.93400341 104.6405952 -293.81871417 106.95782499 -301.81958008 109.0234375 C-307.05918886 110.42700399 -312.2417307 112.00627644 -317.43286133 113.578125 C-330.55819283 117.54948098 -343.72850201 121.37367535 -356.91723633 125.12890625 C-368.02795157 128.29572847 -379.10101669 131.54419792 -390.10473633 135.06640625 C-396.7778283 137.19749477 -403.47069875 139.11267429 -410.25317383 140.87109375 C-415.79576422 142.33169698 -421.2913667 143.95718286 -426.79223633 145.56640625 C-427.79472412 145.8595874 -428.79721191 146.15276855 -429.83007812 146.45483398 C-434.39602261 147.79420289 -438.95832412 149.14469379 -443.51489258 150.515625 C-448.86927066 152.12581648 -454.23612408 153.69193318 -459.60473633 155.25390625 C-461.73234354 155.87368748 -463.85994761 156.49347945 -465.98754883 157.11328125 C-467.06552734 157.42716797 -468.14350586 157.74105469 -469.25415039 158.06445312 C-472.34777194 158.96547157 -475.44115954 159.86728712 -478.53442383 160.76953125 C-479.51693115 161.05610596 -480.49943848 161.34268066 -481.51171875 161.63793945 C-483.49632201 162.21697933 -485.48085941 162.79624499 -487.46533203 163.37573242 C-492.52687967 164.85330657 -497.58979923 166.32584586 -502.65551758 167.7890625 C-511.77651748 170.42834287 -520.87821774 173.09494166 -529.91723633 176.00390625 C-538.28547125 178.69674864 -546.73288892 181.05641793 -555.20629883 183.39404297 C-562.42498785 185.39689702 -569.56926046 187.56703429 -576.69897461 189.86401367 C-582.21977364 191.63270303 -587.76894976 193.26527235 -593.35473633 194.81640625 C-594.47029907 195.12698975 -594.47029907 195.12698975 -595.60839844 195.44384766 C-606.25982741 198.36477781 -606.25982741 198.36477781 -611.22583008 196.96484375 C-612.13244385 196.71702148 -613.03905762 196.46919922 -613.97314453 196.21386719 C-614.94469482 195.93833008 -615.91624512 195.66279297 -616.91723633 195.37890625 C-619.02325149 194.80580957 -621.13004166 194.23555417 -623.23754883 193.66796875 C-624.29619141 193.38211914 -625.35483398 193.09626953 -626.44555664 192.80175781 C-630.70606525 191.6814374 -634.99100735 190.70364954 -639.29223633 189.75390625 C-650.13116068 187.34265965 -660.93014363 184.77186328 -671.72973633 182.19140625 C-675.41457705 181.31096696 -679.09944823 180.4306559 -682.78442383 179.55078125 C-683.69420486 179.33354904 -684.6039859 179.11631683 -685.54133606 178.89250183 C-691.18690895 177.5461209 -696.83541159 176.21307219 -702.48754883 174.89453125 C-703.19032959 174.73051315 -703.89311035 174.56649506 -704.6171875 174.39750671 C-705.65758179 174.15469719 -705.65758179 174.15469719 -706.71899414 173.90698242 C-720.60216273 170.66652819 -734.44526229 167.29148594 -748.26779175 163.80114746 C-758.12680073 161.31224628 -767.99795412 158.93054154 -777.91723633 156.69140625 C-786.23766427 154.8128885 -794.40532374 152.78255026 -802.47973633 150.00390625 C-799.12459774 147.76714719 -796.78160959 147.29877452 -792.83911133 146.5234375 C-792.17358749 146.39007996 -791.50806366 146.25672241 -790.82237244 146.11932373 C-789.38174712 145.83098895 -787.94055363 145.54548171 -786.49887085 145.26248169 C-782.6156645 144.49910563 -778.7372255 143.71225818 -774.85864258 142.92578125 C-774.06629715 142.76545914 -773.27395172 142.60513702 -772.45759583 142.43995667 C-765.00212739 140.92335804 -757.58334848 139.26553649 -750.16723633 137.56640625 C-738.80780593 134.96977677 -727.4336219 132.45640213 -716.04223633 130.00390625 C-714.46508704 129.66414781 -712.88793861 129.32438545 -711.31079102 128.98461914 C-708.96644923 128.47964495 -706.62209854 127.97471234 -704.27770996 127.46995544 C-696.6546314 125.82793836 -689.0351823 124.16955538 -681.41723633 122.50390625 C-680.76997589 122.3625827 -680.12271545 122.22125916 -679.45584106 122.07565308 C-671.92827999 120.43156597 -664.40590427 118.76644566 -656.88989258 117.0703125 C-653.92007345 116.40130458 -650.95001465 115.73337246 -647.97973633 115.06640625 C-647.24314789 114.90096313 -646.50655945 114.73552002 -645.74765015 114.56506348 C-631.6377381 111.40530444 -617.47337581 108.54470738 -603.27856445 105.79321289 C-595.39855209 104.25647116 -587.60862052 102.58318622 -579.83387756 100.57559204 C-571.05881611 98.34058589 -562.1766377 96.58937545 -553.30764771 94.77246094 C-547.93896773 93.67227413 -542.57254566 92.56120427 -537.20629883 91.44921875 C-536.1623848 91.23299866 -535.11847076 91.01677856 -534.04292297 90.79400635 C-526.69249034 89.2670855 -519.36205646 87.67185227 -512.04223633 86.00390625 C-498.53170958 82.93630408 -484.94935741 80.22552367 -471.37179565 77.47366333 C-457.76365397 74.7140314 -444.17050975 71.90251002 -430.60473633 68.94140625 C-417.15840846 66.00797005 -403.70068412 63.13482509 -390.22973633 60.31640625 C-389.31397827 60.12479919 -388.39822021 59.93319214 -387.45471191 59.73577881 C-375.63816818 57.26598576 -363.8160869 54.82878497 -351.97094727 52.49926758 C-347.09597056 51.53960179 -342.24233403 50.52412652 -337.40112305 49.40551758 C-332.01428948 48.279553 -327.84356586 49.10826509 -322.69067383 50.74609375 C-295.44732002 59.34799815 -295.44732002 59.34799815 -267.60058594 65.61035156 C-266.10858621 65.88721395 -264.6224948 66.19693108 -263.14208984 66.53027344 C-254.44442588 68.37695315 -245.7651437 68.40142059 -236.91723633 68.37890625 C-235.71544739 68.37809052 -235.71544739 68.37809052 -234.48937988 68.3772583 C-222.69563085 68.34038624 -211.74042338 67.79636562 -200.47973633 64.00390625 C-199.43052002 63.65851807 -199.43052002 63.65851807 -198.36010742 63.30615234 C-179.33216002 56.95498387 -163.35552994 46.62556266 -151.41723633 30.31640625 C-151.01746582 29.77669189 -150.61769531 29.23697754 -150.20581055 28.6809082 C-148.18019976 25.82731354 -146.5983629 23.33691362 -145.41357422 20.01098633 C-143.49722833 14.93576931 -142.18151174 11.77645904 -137.09326172 9.46655273 C-132.80756185 8.27955433 -128.43940851 7.67895449 -124.04223633 7.06640625 C-122.4548081 6.80534497 -120.86828924 6.53869568 -119.28271484 6.26660156 C-116.1342692 5.73015363 -112.9834801 5.21685073 -109.82836914 4.72119141 C-104.13600357 3.80789069 -98.53238117 2.55264723 -92.91723633 1.25390625 C-84.74878929 -0.57100602 -76.56622224 -2.06981472 -68.30004883 -3.375 C-65.18853959 -3.88085886 -62.12300566 -4.45954924 -59.04223633 -5.12109375 C-38.13738012 -9.36573461 -19.94016106 -6.45966761 0 0 Z " fill="#EF3F2D" transform="translate(924.479736328125,683.99609375)"/>
<path d="M0 0 C1.051875 0.556875 2.10375 1.11375 3.1875 1.6875 C4.61667326 2.19095876 6.05515204 2.66846818 7.5 3.125 C11.56396332 4.44767272 15.50665651 5.98087428 19.46484375 7.58984375 C24.67855752 9.69178574 29.93803575 11.67693686 35.1875 13.6875 C37.3543004 14.52048554 39.52096807 15.35381642 41.6875 16.1875 C45.03084573 17.47371432 48.37444219 18.75925768 51.71875 20.04296875 C52.8634375 20.48253906 54.008125 20.92210937 55.1875 21.375 C56.21875 21.77074219 57.25 22.16648437 58.3125 22.57421875 C60.16908858 23.29314232 62.02108496 24.02409335 63.8671875 24.76953125 C65.65664139 25.47748018 67.47964963 26.10098788 69.3125 26.6875 C72.1875 27.6875 72.1875 27.6875 75.1875 29.6875 C77.17392079 30.39359978 79.17594102 31.05656822 81.1875 31.6875 C84.18008339 32.6850278 87.17258854 33.68274259 90.1640625 34.68359375 C91.98902501 35.28955675 93.81648193 35.88817519 95.6484375 36.47265625 C99.26929407 37.63514178 102.73754937 38.89705927 106.1875 40.5 C112.06420641 43.19870028 118.19183316 45.20879951 124.296875 47.3203125 C127.29760817 48.36166607 130.23881994 49.50618217 133.1875 50.6875 C135.9095566 51.66620874 138.64282959 52.61245532 141.375 53.5625 C146.88109455 55.48834333 152.34075377 57.46550495 157.71875 59.73046875 C159.94212512 60.59237841 162.16834139 61.35103231 164.43359375 62.09375 C168.93646557 63.57913334 173.34275534 65.25388403 177.75 67 C192.54347534 72.84209818 207.48487993 78.30097825 222.42431641 83.75634766 C224.35408652 84.4620269 226.28312177 85.16971889 228.21142578 85.87939453 C256.55221015 97.45468138 256.55221015 97.45468138 285.921875 93.86328125 C294.02426021 89.65842272 296.2073405 83.95546463 299.1875 75.6875 C304.89685401 77.31606983 309.85616282 80.02814851 315.0625 82.8125 C324.82169702 87.96263231 334.63404134 92.9954195 344.5 97.9375 C345.52827911 98.45259125 345.52827911 98.45259125 346.57733154 98.97808838 C356.98595429 104.18132082 367.46425779 109.15990885 378.1875 113.6875 C378.1875 114.3475 378.1875 115.0075 378.1875 115.6875 C377.259375 116.285625 376.33125 116.88375 375.375 117.5 C372.04558302 119.78489401 370.70121136 120.98731667 369.1875 124.6875 C368.65850728 130.24192358 368.8588058 134.00652378 372.1875 138.6875 C377.29256368 142.61066686 382.83977535 144.91264676 388.9375 146.8125 C389.73043457 147.06402832 390.52336914 147.31555664 391.34033203 147.57470703 C392.91468055 148.06855126 394.49097339 148.55624861 396.06933594 149.03710938 C397.82779577 149.5770514 399.57565593 150.15137256 401.3203125 150.734375 C411.65971392 153.85681531 426.00809112 155.24088771 436.0625 150.625 C440.81280763 147.68233156 444.68091396 143.70067208 447.1875 138.6875 C452.16884022 139.17565555 457.04563676 139.81528859 461.95947266 140.79174805 C475.23995499 143.36744341 488.69966162 143.42662174 502.1875 143.6875 C502.96163722 164.41717455 497.43971697 182.39029559 483.15625 197.78515625 C466.90307103 214.21617173 445.17392126 219.89518164 422.75 220.125 C403.50091736 220.03279496 385.67708537 216.62846144 367.42578125 210.6640625 C362.93666271 209.20266136 358.4173515 207.89465692 353.87236023 206.62156677 C342.83714765 203.52739864 331.99614258 200.05619252 321.1875 196.25 C320.30552948 195.94124939 319.42355896 195.63249878 318.51486206 195.31439209 C278.81552692 181.39420247 239.56936816 166.10295043 200.36262512 150.86283875 C193.46108159 148.18024048 186.55529276 145.50873286 179.6484375 142.83984375 C159.59084845 135.08635781 139.54637968 127.31038467 119.60319519 119.26644897 C113.28933792 116.72256173 106.96470415 114.20584405 100.640625 111.6875 C97.229314 110.32776236 93.81811233 108.96775084 90.4069519 107.6076355 C88.16031483 106.7123736 85.91335329 105.81792547 83.66604614 104.92434692 C80.49121728 103.66166972 77.31775199 102.39561844 74.14453125 101.12890625 C73.20293152 100.75536011 72.26133179 100.38181396 71.29119873 99.99694824 C65.64237864 97.73772207 60.0906342 95.32232564 54.57131958 92.76243591 C51.52099428 91.38695254 48.41753833 90.26254331 45.25 89.1875 C39.85301055 87.30441999 34.58453484 85.24116432 29.32421875 83.0078125 C25.75315432 81.50467455 22.16148952 80.0596472 18.5625 78.625 C17.92441406 78.37000732 17.28632813 78.11501465 16.62890625 77.85229492 C13.85397069 76.7446857 11.0765762 75.64423822 8.29296875 74.55859375 C4.47311745 73.06233863 0.76678375 71.5172994 -2.875 69.625 C-5.50621629 68.26762652 -8.04504856 67.24088066 -10.875 66.375 C-14.96176026 65.08224931 -18.768607 63.35253599 -22.625 61.5 C-31.05613323 57.46654413 -39.70569217 54.04766745 -48.40283203 50.63525391 C-52.02507594 49.21057803 -55.63747301 47.76159531 -59.25 46.3125 C-60.40371094 45.85101562 -61.55742187 45.38953125 -62.74609375 44.9140625 C-65.43489583 43.83854167 -68.12369792 42.76302083 -70.8125 41.6875 C-69.06808577 37.48142508 -66.99709261 36.24637402 -62.9765625 34.375 C-58.66836804 33.00633172 -54.94859077 34.30880308 -50.8125 35.6875 C-50.8125 36.3475 -50.8125 37.0075 -50.8125 37.6875 C-50.09707031 37.83445312 -49.38164062 37.98140625 -48.64453125 38.1328125 C-41.57043524 39.72517046 -35.44015848 42.10986325 -28.92578125 45.26953125 C-25.33105128 46.90677965 -21.74481932 47.9984098 -17.9453125 49.04296875 C-15.05265613 49.91712315 -12.49955655 51.31538602 -9.8125 52.6875 C-7.58875973 53.48854715 -5.348404 54.21605832 -3.09765625 54.9375 C-0.99418832 55.62786896 1.06142316 56.38708232 3.125 57.1875 C6.97867477 58.67027666 10.90362432 59.77716383 14.890625 60.84375 C17.40717755 61.76819787 19.08840821 63.04132428 21.1875 64.6875 C24.16929828 65.85429063 26.81514536 66.64612726 30 67 C33.03447863 67.65449539 34.63569501 68.43523351 37.25 70 C41.89415227 72.71038318 46.58014454 74.16661537 51.7265625 75.66015625 C60.6333261 78.30403755 69.24575925 81.67044998 77.7890625 85.30078125 C85.99220405 88.64804016 94.36235577 91.59325701 102.69873047 94.59033203 C109.8666967 97.1757826 116.98124322 99.89366747 124.09210205 102.63131714 C142.98896213 109.90169016 161.96352229 116.95973221 180.94781494 123.99795532 C186.22766898 125.95643473 191.50226421 127.9284436 196.7734375 129.91015625 C202.896523 132.21128373 209.03497083 134.46636614 215.1875 136.6875 C221.41091983 138.94115657 227.62323334 141.21667516 233.8125 143.5625 C242.28270511 146.77006582 250.82544846 149.77341093 259.36010742 152.80419922 C266.98028135 155.51856663 274.56313456 158.31515361 282.125 161.1875 C295.70540665 166.3333129 309.43605073 171.02249583 323.1875 175.6875 C323.95884277 175.95014648 324.73018555 176.21279297 325.52490234 176.48339844 C329.04700706 177.68117787 332.57563321 178.85719719 336.11279297 180.00976562 C337.67792033 180.52103811 339.24184387 181.03599792 340.80517578 181.55273438 C352.83339057 185.52254853 364.89406742 189.26358055 377.125 192.5625 C378.18372314 192.84851074 379.24244629 193.13452148 380.33325195 193.42919922 C403.94962848 199.68506859 431.72031231 203.23996878 454.01367188 190.65673828 C459.87596119 187.03303577 465.06129059 183.29440657 469.1875 177.6875 C468.69121094 178.01363281 468.19492187 178.33976563 467.68359375 178.67578125 C446.87630184 192.06035802 421.59623579 190.56514277 398.1875 185.6875 C372.55900183 179.98256884 347.85608 170.52157101 323.1875 161.6875 C322.27337341 161.3607428 321.35924683 161.0339856 320.41741943 160.69732666 C294.51231361 151.43465831 268.7450285 141.80837516 242.99536133 132.12329102 C231.18060382 127.67998033 219.36209013 123.25300239 207.5 118.9375 C194.77573184 114.3055111 182.10501624 109.53463384 169.4375 104.75 C168.45198151 104.37806519 167.46646301 104.00613037 166.45108032 103.6229248 C163.6179511 102.55325975 160.78541911 101.48203036 157.953125 100.41015625 C157.1157933 100.093918 156.27846161 99.77767975 155.41575623 99.45185852 C150.4018579 97.5512079 145.41430822 95.59309699 140.44137573 93.58764648 C137.00139936 92.2137985 133.53436972 90.91564496 130.0625 89.625 C128.74739583 89.13411458 127.43229167 88.64322917 126.1171875 88.15234375 C125.46983643 87.9112085 124.82248535 87.67007324 124.15551758 87.42163086 C122.16644829 86.67964707 120.1788017 85.93395439 118.19140625 85.1875 C115.53795828 84.19148718 112.881665 83.20372296 110.22265625 82.22265625 C98.28392904 77.80408418 98.28392904 77.80408418 93.4375 75.5625 C89.11078615 73.56428483 84.63904806 72.15722685 80.109375 70.69140625 C76.7352199 69.5321043 73.5360445 68.13310193 70.30078125 66.63671875 C66.98999929 65.14962075 63.5975299 63.92751087 60.1875 62.6875 C60.1875 62.0275 60.1875 61.3675 60.1875 60.6875 C59.45378174 60.72182129 58.72006348 60.75614258 57.96411133 60.79150391 C55.09526569 60.68404517 53.37466985 60.15984854 50.76171875 59.0234375 C46.66614343 57.30034068 42.55333491 55.66697114 38.39453125 54.1015625 C37.19546143 53.649021 35.9963916 53.19647949 34.76098633 52.73022461 C34.1465567 52.49866669 33.53212708 52.26710876 32.89907837 52.02853394 C23.62892699 48.53328957 14.37702588 45.00776581 5.1953125 41.28515625 C-1.65278908 38.53154897 -8.56047441 35.92635259 -15.45385742 33.28881836 C-21.20278998 31.08673803 -26.93284852 28.84678994 -32.64428711 26.54931641 C-35.38985743 25.45801326 -38.15683908 24.43568597 -40.9375 23.4375 C-42.33355469 22.93476562 -42.33355469 22.93476562 -43.7578125 22.421875 C-44.43585938 22.17953125 -45.11390625 21.9371875 -45.8125 21.6875 C-43.08504994 18.87739994 -40.32747242 16.25038194 -37.3125 13.75 C-34.97084533 11.78603157 -33.31020582 10.05641244 -31.375 7.625 C-23.87759852 -0.96958219 -10.82836798 -4.88940493 0 0 Z " fill="#56ACE1" transform="translate(267.8125,514.3125)"/>
<path d="M0 0 C0.33 0 0.66 0 1 0 C1.07476562 0.87140625 1.14953125 1.7428125 1.2265625 2.640625 C2.432891 13.56854201 5.27916602 23.69883666 14 31 C14.5775 31.5775 15.155 32.155 15.75 32.75 C32.78050716 49.26443118 60.00732016 58.85018808 81.6015625 68.07421875 C97.77790822 75.07014944 113.82792609 82.58921913 129.30859375 91.01171875 C132.97097614 93.00370917 136.6953994 94.85093911 140.4375 96.6875 C153.96734344 103.37013174 167.18935914 110.68860664 180.40234375 117.97265625 C196.08189227 126.61019835 211.97390693 134.81233243 227.92218018 142.93963623 C229.94675761 143.97282907 231.9695085 145.00950813 233.99169922 146.04736328 C279.49570154 169.38339701 330.33807172 192.99554069 382.375 193.25 C383.94507813 193.2809375 383.94507813 193.2809375 385.546875 193.3125 C399.89170271 193.38333866 413.6558342 189.77215692 424.1875 179.8046875 C425.45977092 178.53790051 426.73046808 177.26953192 428 176 C428.84136719 186.09640622 425.22210597 195.31608024 418.859375 203.1875 C404.95648029 216.73990156 387.76640856 216.41451382 369.6328125 216.20703125 C318.99033793 215.19814304 268.49661528 188.11749362 224.01074219 165.99786377 C221.41679362 164.71057427 218.81849977 163.43221605 216.21995544 162.15423584 C213.28998041 160.71201475 210.3637084 159.26234472 207.4375 157.8125 C205.9050061 157.05622314 205.9050061 157.05622314 204.34155273 156.28466797 C198.80844119 153.52066716 193.48567753 150.55000901 188.20922852 147.32397461 C185.46102017 145.6769933 182.63874989 144.25887757 179.75 142.875 C173.71608742 139.91725861 167.82885278 136.74104372 161.9453125 133.49609375 C150.4409092 127.18972123 138.81365909 121.14407319 127.125 115.1875 C126.11007477 114.66941772 125.09514954 114.15133545 124.04946899 113.61755371 C106.53711634 104.68780038 88.87864347 96.16718751 71 88 C63.37977747 84.49762435 55.76345985 80.98679233 48.15429688 77.46044922 C46.00323916 76.46450284 43.85083568 75.47145917 41.69726562 74.48095703 C-0.09103966 55.20674308 -0.09103966 55.20674308 -7.34375 37.0078125 C-10.62920555 26.95588301 -9.51541736 17.47948196 -5 8 C-3.48546756 5.22188963 -1.93416924 2.50938686 0 0 Z " fill="#03509F" transform="translate(384,422)"/>
<path d="M0 0 C10.79555991 0.70664943 21.50903201 1.91852283 32.25 3.1875 C34.13402538 3.40826989 36.01805878 3.62897133 37.90209961 3.84960938 C54.20661859 5.76514178 70.500974 7.76302575 86.79492188 9.76611328 C99.94451261 11.38255582 113.09495262 12.99099715 126.25 14.5625 C127.52664017 14.71502731 127.52664017 14.71502731 128.82907104 14.87063599 C143.186778 16.58173553 157.55655857 18.17183593 171.92999268 19.74438477 C187.87277391 21.49337894 203.78656804 23.43788558 219.69790649 25.45135498 C232.39546148 27.05780452 245.09439724 28.62711721 257.8125 30.0625 C258.48904633 30.13893738 259.16559265 30.21537476 259.86264038 30.29412842 C262.62625586 30.60609695 265.38993776 30.91746894 268.15370178 31.2281189 C277.27259389 32.25368666 286.38935301 33.29771453 295.50521851 34.349823 C297.44587339 34.57330581 299.38664775 34.79575382 301.32754517 35.01712036 C304.02985079 35.32536002 306.73175637 35.63690505 309.43359375 35.94921875 C310.64663681 36.08645859 310.64663681 36.08645859 311.88418579 36.22647095 C315.32922388 36.62790341 318.64936761 37.1084951 322 38 C320.63154975 41.03872143 319.05830686 43.23033446 316.76953125 45.64453125 C316.13080078 46.32193359 315.49207031 46.99933594 314.83398438 47.69726562 C314.16689453 48.39529297 313.49980469 49.09332031 312.8125 49.8125 C312.16474609 50.49892578 311.51699219 51.18535156 310.84960938 51.89257812 C305.83127068 57.19166304 300.68473332 62.3528446 295.48828125 67.4765625 C293.51559642 69.47711886 291.61858841 71.50754222 289.73046875 73.5859375 C288.54984327 74.84929869 287.36884744 76.11231388 286.1875 77.375 C285.60935547 78.02855469 285.03121094 78.68210937 284.43554688 79.35546875 C283.85224609 79.96777344 283.26894531 80.58007812 282.66796875 81.2109375 C282.15516357 81.77087402 281.6423584 82.33081055 281.11401367 82.90771484 C275.87036583 85.61704392 268.26588471 82.38139995 262.8984375 80.7421875 C262.14811249 80.51840424 261.39778748 80.29462097 260.62472534 80.0640564 C258.20619344 79.34071486 255.7905955 78.60808166 253.375 77.875 C251.69510187 77.37038561 250.01508803 76.86615623 248.33496094 76.36230469 C240.58341415 74.03108874 232.84314281 71.66885724 225.14013672 69.18115234 C224.1863916 68.87387207 223.23264648 68.5665918 222.25 68.25 C221.52257095 68.01354263 220.79514191 67.77708527 220.04566956 67.53346252 C213.56728248 65.4485097 207.04291498 63.5930679 200.48046875 61.79296875 C187.26351985 58.12771162 174.16066553 54.12866452 161.0625 50.0625 C158.89137123 49.39096823 156.72014727 48.71974409 154.54882812 48.04882812 C150.22516986 46.71253834 145.90208111 45.3744281 141.5793457 44.03515625 C133.65056539 41.58025683 125.71645413 39.14269861 117.78114319 36.70899963 C111.5709912 34.80163995 105.37436826 32.85648495 99.1875 30.875 C91.91687022 28.56301286 84.60569315 26.43107913 77.26263428 24.36143494 C70.936974 22.57188612 64.64107539 20.69852748 58.35546875 18.7734375 C56.33090151 18.15532342 54.30632436 17.53724183 52.28173828 16.91918945 C51.2472052 16.60301666 50.21267212 16.28684387 49.14678955 15.96109009 C43.99621907 14.38800674 38.8437311 12.8212319 33.69140625 11.25390625 C31.6699124 10.638703 29.648428 10.02346872 27.62695312 9.40820312 C26.63187744 9.105354 25.63680176 8.80250488 24.61157227 8.49047852 C16.40771484 5.99365234 8.20385742 3.49682617 0 1 C0 0.67 0 0.34 0 0 Z " fill="#0A84D6" transform="translate(154,262)"/>
<path d="M0 0 C0.62769287 0.12262207 1.25538574 0.24524414 1.90209961 0.37158203 C11.12592167 2.04805833 20.3811537 2.83913248 29.71200562 3.63217163 C46.27458688 5.04310744 62.79525156 6.65848359 79.29321289 8.69287109 C86.7212343 9.58918967 94.10043297 10.22212325 101.56729126 10.61203003 C108.67614742 10.99991435 115.72840353 11.75064934 122.80047607 12.55563354 C126.83842865 13.01416741 130.87832322 13.45511127 134.91796875 13.8984375 C136.17332428 14.03665169 136.17332428 14.03665169 137.45404053 14.17765808 C146.25635701 15.14406959 155.06395229 16.05450173 163.875 16.9375 C164.66576935 17.01678741 165.4565387 17.09607483 166.27127075 17.17776489 C190.8304417 19.62945334 215.41742737 21.7982924 240 24 C238.39627105 28.14640825 236.42586077 31.89196761 234.125 35.6875 C233.742229 36.32308838 233.35945801 36.95867676 232.96508789 37.61352539 C227.90949194 45.91422011 222.45239186 53.95678481 217 62 C209.70059181 60.42924128 202.47666747 58.62543273 195.25 56.75 C194.17878906 56.47542969 193.10757813 56.20085937 192.00390625 55.91796875 C184.17498534 53.89026914 176.40033649 51.70182884 168.628479 49.46710205 C161.38770238 47.38806085 154.13444465 45.35658355 146.875 43.34375 C145.74342468 43.02996399 144.61184937 42.71617798 143.44598389 42.3928833 C139.96415472 41.42799026 136.48211737 40.46385242 133 39.5 C116.98069624 35.06584599 100.97367588 30.59603825 85 26 C77.61134495 23.87733237 70.21736923 21.77774773 62.80859375 19.7265625 C53.78168459 17.22297736 44.76381486 14.6879282 35.74853516 12.14282227 C33.23743287 11.43395237 30.72614962 10.7257264 28.21484375 10.01757812 C18.80472424 7.36298991 9.39890153 4.69405681 0 2 C0 1.34 0 0.68 0 0 Z " fill="#0C86D5" transform="translate(281,211)"/>
<path d="M0 0 C0.57403564 0.11480713 1.14807129 0.22961426 1.73950195 0.34790039 C2.56409912 0.51281982 3.38869629 0.67773926 4.23828125 0.84765625 C5.18566162 1.03714844 6.13304199 1.22664063 7.10913086 1.421875 C9.29090935 1.85819744 11.47271377 2.29439019 13.65454102 2.73046875 C19.55547403 3.91008823 25.45611207 5.09112178 31.35592651 6.27632141 C35.04963943 7.01827044 38.74352669 7.75934857 42.4375 8.5 C43.18477356 8.64984344 43.93204712 8.79968689 44.70196533 8.95407104 C55.40780188 11.09913243 66.12330289 13.18598041 76.84960938 15.2265625 C83.89594869 16.57463497 90.91895315 18.01453233 97.9375 19.5 C106.20871964 21.24829974 114.49556656 22.85941794 122.8125 24.375 C132.85883475 26.21053001 142.88805112 28.1214901 152.90512085 30.10992432 C154.39607274 30.40556695 155.88729373 30.69985663 157.3788147 30.99261475 C167.67294524 33.01574206 177.8446472 35.36719389 188 38 C183.51666363 43.40118476 178.71664394 48.29707564 173.6875 53.1875 C167.06182515 59.70473266 161.20929217 66.2973714 156 74 C151.71654494 73.44399351 148.35646562 72.43053393 144.4921875 70.515625 C143.43918457 70.00008057 142.38618164 69.48453613 141.30126953 68.95336914 C140.17060059 68.39125732 139.03993164 67.82914551 137.875 67.25 C135.41340985 66.04157012 132.94892192 64.83910464 130.484375 63.63671875 C129.85552399 63.32911118 129.22667297 63.0215036 128.57876587 62.70457458 C122.47263961 59.72488516 116.30214465 56.89157119 110.125 54.0625 C97.4818977 48.24692913 84.99050161 42.13509575 72.5 36 C56.75482293 28.26647616 40.95495012 20.70582641 25.01318359 13.38623047 C19.93583861 11.05037203 14.87008564 8.69081062 9.8125 6.3125 C8.925625 5.90161133 8.03875 5.49072266 7.125 5.06738281 C6.32707031 4.6906543 5.52914062 4.31392578 4.70703125 3.92578125 C4.0106958 3.60005127 3.31436035 3.27432129 2.59692383 2.9387207 C1 2 1 2 0 0 Z " fill="#0D86D5" transform="translate(212,335)"/>
<path d="M0 0 C3.45519409 1.25936981 6.54361562 2.84154959 9.7043457 4.71484375 C21.24140127 11.53005881 33.48250975 16.90426687 45.65380859 22.46484375 C50.32725574 24.60891464 54.97977017 26.79557229 59.625 29 C60.76219482 29.53935181 60.76219482 29.53935181 61.92236328 30.08959961 C67.31663734 32.65671021 72.68132642 35.27913614 78 38 C75.12371857 39.50095606 72.22833839 40.68715036 69.1875 41.8125 C59.43850304 45.75206539 54.87238061 51.29057318 49 60 C41.67475916 57.60208589 34.42550992 55.02397763 27.1875 52.375 C26.56725952 52.14811493 25.94701904 51.92122986 25.3079834 51.68746948 C12.40011746 46.95665037 -0.42864478 42.02218369 -13.25 37.0625 C-14.20734039 36.69219666 -15.16468079 36.32189331 -16.15103149 35.94036865 C-18.91885266 34.86897125 -21.68615299 33.79624461 -24.453125 32.72265625 C-25.26881454 32.40632736 -26.08450409 32.08999847 -26.9249115 31.76408386 C-32.63129684 29.54573384 -38.31907969 27.28273162 -44 25 C-44 24.67 -44 24.34 -44 24 C-42.45892578 23.85304688 -42.45892578 23.85304688 -40.88671875 23.703125 C-25.14693041 22.0651509 -14.00136531 18.15506959 -3.4453125 5.9296875 C-2.02037739 4.02720657 -0.98745353 2.15705869 0 0 Z " fill="#046DC0" transform="translate(379,495)"/>
<path d="M0 0 C5.70935401 1.62856983 10.66866282 4.34064851 15.875 7.125 C25.63419702 12.27513231 35.44654134 17.3079195 45.3125 22.25 C45.99801941 22.59339417 46.68353882 22.93678833 47.38983154 23.29058838 C57.79845429 28.49382082 68.27675779 33.47240885 79 38 C79 38.66 79 39.32 79 40 C78.071875 40.598125 77.14375 41.19625 76.1875 41.8125 C72.85808302 44.09739401 71.51371136 45.29981667 70 49 C69.54949679 54.58623983 70.3677718 58.60259201 72 64 C62.55300553 60.92940014 53.24766328 57.63583343 44 54 C41.72990215 53.12309363 39.45907276 52.2480786 37.1875 51.375 C35.56908203 50.75238281 35.56908203 50.75238281 33.91796875 50.1171875 C31.61520589 49.23554068 29.31013056 48.3620613 27 47.5 C21.31598025 45.37891926 15.66108735 43.18133641 10 41 C8.9790625 40.608125 7.958125 40.21625 6.90625 39.8125 C2.19089746 38.0025667 -2.5230434 36.1903097 -7.22265625 34.33984375 C-17.40870207 30.3366379 -27.6558009 26.57464095 -38 23 C-38 22.67 -38 22.34 -38 22 C-36.97261719 21.97421875 -35.94523438 21.9484375 -34.88671875 21.921875 C-24.77265771 21.55480286 -16.49027386 20.25349562 -7.625 15 C-3.7526138 10.57441577 -1.97782067 5.48713964 0 0 Z " fill="#036BBF" transform="translate(567,590)"/>
<path d="M0 0 C2.39873288 0.94356489 4.73716526 1.97452913 7.08007812 3.04931641 C7.97049805 3.4443335 8.86091797 3.83935059 9.77832031 4.24633789 C12.80493358 5.59840746 15.81832803 6.97696567 18.83007812 8.36181641 C19.96316406 8.88098633 21.09625 9.40015625 22.26367188 9.93505859 C28.26026768 12.68869802 34.24427675 15.46650396 40.21679688 18.27197266 C44.22354258 20.15348585 48.23978071 22.00292413 52.28710938 23.79541016 C53.47481934 24.32896118 53.47481934 24.32896118 54.68652344 24.87329102 C56.10113919 25.50717539 57.52073769 26.13012089 58.94628906 26.73901367 C63.01195395 28.58203667 65.07016731 30.23039457 66.83007812 34.36181641 C67.71278389 38.61796359 67.65859811 42.59179643 65.79882812 46.56494141 C63.7713546 49.33582189 62.51431386 51.04174657 58.99682617 51.71020508 C52.00494121 52.1583928 46.66460127 49.45987106 40.51757812 46.42431641 C38.38121539 45.40664162 36.24449112 44.38972547 34.10742188 43.37353516 C33.04894043 42.8635498 31.99045898 42.35356445 30.89990234 41.828125 C26.49275983 39.72304325 22.04020935 37.72643286 17.58007812 35.73681641 C16.78230957 35.37620117 15.98454102 35.01558594 15.16259766 34.64404297 C10.90072356 32.71865839 6.62334705 30.84127263 2.31835938 29.01416016 C1.41053711 28.62244629 0.50271484 28.23073242 -0.43261719 27.82714844 C-2.1619894 27.0817947 -3.89676416 26.3488003 -5.63769531 25.63085938 C-11.54242221 23.06501366 -15.21791599 20.26582818 -18.16992188 14.36181641 C-18.64739837 10.88305911 -18.8410968 8.40884928 -16.90039062 5.38134766 C-12.0201925 -0.37752361 -7.53903608 -2.21726376 0 0 Z " fill="#FAFCFD" transform="translate(610.169921875,290.63818359375)"/>
<path d="M0 0 C1.32053614 0.64835274 2.64203884 1.29473947 3.96435547 1.93945312 C5.01172882 2.45536011 5.01172882 2.45536011 6.08026123 2.98168945 C9.96394484 4.85789835 13.90926212 6.59500289 17.8515625 8.34375 C19.50719874 9.08194763 21.16279744 9.82022947 22.81835938 10.55859375 C25.3524782 11.68668057 27.88680717 12.81429439 30.42114258 13.94189453 C32.91927111 15.0539201 35.41668355 16.16754229 37.9140625 17.28125 C38.66724258 17.61566101 39.42042267 17.95007202 40.19642639 18.2946167 C51.73404751 23.44065539 51.73404751 23.44065539 54.16015625 26.109375 C56.19088566 31.41183512 56.25400004 36.8323749 53.97265625 42.046875 C51.31304936 45.19900169 49.72065971 46.00897012 45.58813477 46.36865234 C41.02593843 46.24320836 37.52038453 44.8285106 33.4375 42.8984375 C32.3481163 42.40606598 32.3481163 42.40606598 31.23672485 41.90374756 C28.89201487 40.84046591 26.55742052 39.7567983 24.22265625 38.671875 C21.79884961 37.56271325 19.3731181 36.45783727 16.9473114 35.35305786 C15.33684938 34.61898491 13.72723521 33.88304897 12.1184845 33.14523315 C7.43709701 31.00285253 2.7353852 28.94269159 -2.01953125 26.96875 C-3.07261475 26.52966309 -4.12569824 26.09057617 -5.21069336 25.63818359 C-7.11012863 24.85280833 -9.01433865 24.07883854 -10.92407227 23.31884766 C-16.32588093 21.05955977 -19.53137544 19.03665733 -22.71484375 14.046875 C-23.59522417 10.60303396 -23.44550016 7.52039236 -22.71484375 4.046875 C-16.45031387 -4.3058315 -9.00007172 -4.5278395 0 0 Z " fill="#FAFCFD" transform="translate(615.71484375,344.953125)"/>
<path d="M0 0 C1.07693115 0.48525146 2.1538623 0.97050293 3.26342773 1.47045898 C4.40626221 1.99969971 5.54909668 2.52894043 6.7265625 3.07421875 C8.52866137 3.89574396 10.33076172 4.71726598 12.13298035 5.53852844 C13.98336499 6.38379808 15.83127794 7.23432182 17.67919922 8.08496094 C21.21108554 9.70525509 24.76518647 11.27219908 28.32421875 12.83203125 C30.47928881 13.78748496 32.63424207 14.74320218 34.7890625 15.69921875 C35.79437012 16.13468018 36.79967773 16.5701416 37.83544922 17.01879883 C42.76780381 19.23686633 46.51318644 20.92303867 49.3515625 25.76171875 C50.97563944 31.14147362 50.09763971 34.25687976 47.65234375 39.0625 C46.02549953 41.18765687 44.88410852 41.8879682 42.3515625 42.76171875 C36.78303255 43.3282467 33.05306575 41.60395025 28.1640625 39.25390625 C27.38450195 38.89080353 26.60494141 38.52770081 25.80175781 38.15359497 C23.31318711 36.99198257 20.83226928 35.81501825 18.3515625 34.63671875 C15.9059003 33.48678766 13.45872836 32.34013767 11.01098633 31.19464111 C9.40957054 30.44476344 7.80913849 29.6927812 6.2097168 28.93865967 C0.28863884 26.15817632 -5.6972913 23.59387409 -11.765625 21.15283203 C-15.42534883 19.38681692 -18.78944508 17.47970359 -20.6484375 13.76171875 C-21.04275183 9.02994683 -21.10143389 6.66771153 -18.9609375 2.38671875 C-13.57972687 -3.72168251 -7.00217874 -3.19965135 0 0 Z " fill="#F9FBFD" transform="translate(619.6484375,397.23828125)"/>
<path d="M0 0 C4.98134022 0.48815555 9.85813676 1.12778859 14.77197266 2.10424805 C28.05245499 4.67994341 41.51216162 4.73912174 55 5 C55.20705918 13.6274658 55.21462689 21.59628191 53 30 C52.34 30 51.68 30 51 30 C51.66 25.71 52.32 21.42 53 17 C51.68 17.33 50.36 17.66 49 18 C31.85598664 19.23756413 14.64001696 17.44159695 -2.02172852 13.36206055 C-6.63610249 12.51754412 -10.36079945 13.71964888 -14.5625 15.5625 C-20.41909147 17.95152543 -26.79490895 17.23530542 -33 17 C-33 16.67 -33 16.34 -33 16 C-32.20078125 15.98582031 -31.4015625 15.97164062 -30.578125 15.95703125 C-21.48708512 15.56223257 -12.72508868 14.2452604 -5.73046875 7.9609375 C-3.48027901 5.44035836 -1.51328646 3.02657292 0 0 Z " fill="#086FC0" transform="translate(715,653)"/>
<path d="M0 0 C8.00694114 0.5982929 16.00605711 1.2470635 24 2 C24 2.33 24 2.66 24 3 C22.35 3 20.7 3 19 3 C19 3.66 19 4.32 19 5 C19.99 5 20.98 5 22 5 C22 5.66 22 6.32 22 7 C19.45757096 6.37798054 16.91608125 5.75248241 14.375 5.125 C13.30572266 4.86396484 13.30572266 4.86396484 12.21484375 4.59765625 C8.07203784 3.57145662 4.03273322 2.41209271 0 1 C0 0.67 0 0.34 0 0 Z " fill="#2C99DB" transform="translate(154,262)"/>
<path d="M0 0 C0.71542969 0.13277344 1.43085938 0.26554688 2.16796875 0.40234375 C9.76659924 1.74906093 17.29958171 2.52803888 25 3 C24.67 3.99 24.34 4.98 24 6 C17.58754301 7.53341363 13.13922245 6.09871183 7 4 C5.62776696 3.5946785 4.25308096 3.19746999 2.875 2.8125 C1.451875 2.4103125 1.451875 2.4103125 0 2 C0 1.34 0 0.68 0 0 Z " fill="#2F9ADC" transform="translate(281,211)"/>
<path d="M0 0 C4.95 0 9.9 0 15 0 C14.34 1.65 13.68 3.3 13 5 C8.71 3.68 4.42 2.36 0 1 C0 0.67 0 0.34 0 0 Z " fill="#0979CB" transform="translate(529,612)"/>
<path d="M0 0 C4.95 0.99 9.9 1.98 15 3 C15.33 4.65 15.66 6.3 16 8 C10.31497465 6.35433477 5.23318364 3.70967216 0 1 C0 0.67 0 0.34 0 0 Z " fill="#3299DC" transform="translate(212,335)"/>
<path d="M0 0 C0.66 0.33 1.32 0.66 2 1 C-1.3 4.3 -4.6 7.6 -8 11 C-8.66 10.67 -9.32 10.34 -10 10 C-3.84965831 2.51708428 -3.84965831 2.51708428 0 0 Z " fill="#1882D3" transform="translate(573,198)"/>
<path d="M0 0 C2.64 0 5.28 0 8 0 C8 0.66 8 1.32 8 2 C9.65 2.33 11.3 2.66 13 3 C13 3.66 13 4.32 13 5 C11.20620902 4.55005243 9.41501072 4.08975857 7.625 3.625 C6.62726563 3.36976563 5.62953125 3.11453125 4.6015625 2.8515625 C2 2 2 2 0 0 Z " fill="#2284CC" transform="translate(337,520)"/>
<path d="M0 0 C2.475 0.495 2.475 0.495 5 1 C5 2.32 5 3.64 5 5 C3.68 4.67 2.36 4.34 1 4 C0.67 2.68 0.34 1.36 0 0 Z " fill="#1E98DC" transform="translate(223,338)"/>
</svg>
